<svg xmlns="http://www.w3.org/2000/svg" viewBox="0 0 48 48">
  <!-- Shadow -->
  <ellipse cx="24" cy="45" rx="15" ry="3.5" fill="#00000022"/>
  <!-- Bottom bun -->
  <path d="M8 38 Q8 43 24 43 Q40 43 40 38 Z" fill="#C8781A"/>
  <ellipse cx="24" cy="38" rx="16" ry="5" fill="#E8921E"/>
  <ellipse cx="24" cy="36.5" rx="14" ry="3" fill="#F5A82A" opacity="0.7"/>
  <!-- Lettuce ruffles -->
  <path d="M6 34 C9 30 12 33 15 30 C18 33 21 30 24 33 C27 30 30 33 33 30 C36 33 39 30 42 32 L42 36 C39 32 36 35 33 32 C30 35 27 32 24 35 C21 32 18 35 15 32 C12 35 9 32 6 35 Z" fill="#4CAF50"/>
  <!-- Tomato -->
  <rect x="9" y="28" width="30" height="4" rx="2" fill="#EF5350"/>
  <rect x="12" y="28.5" width="8" height="1.5" rx="0.7" fill="#FF7043" opacity="0.5"/>
  <!-- Cheese -->
  <path d="M9 24 L39 24 L41 28 L7 28 Z" fill="#FDD835"/>
  <!-- Patty -->
  <rect x="8" y="18" width="32" height="7" rx="3.5" fill="#6D3B12"/>
  <rect x="10" y="19" width="28" height="3.5" rx="2" fill="#8B4E18" opacity="0.8"/>
  <!-- Top bun -->
  <ellipse cx="24" cy="14" rx="17" ry="9" fill="#C8781A"/>
  <ellipse cx="24" cy="12" rx="14" ry="7" fill="#E8921E"/>
  <!-- Bun shine -->
  <ellipse cx="19" cy="10" rx="6" ry="3.5" fill="#FFCC66" opacity="0.4"/>
  <!-- Sesame seeds -->
  <ellipse cx="17" cy="10" rx="2" ry="1.2" fill="#D4A020" transform="rotate(-25 17 10)"/>
  <ellipse cx="24" cy="8" rx="2" ry="1.2" fill="#D4A020"/>
  <ellipse cx="31" cy="10" rx="2" ry="1.2" fill="#D4A020" transform="rotate(25 31 10)"/>
  <!-- Outlines -->
  <ellipse cx="24" cy="14" rx="17" ry="9" fill="none" stroke="#7A4010" stroke-width="1.8"/>
  <path d="M8 38 Q8 43 24 43 Q40 43 40 38" fill="none" stroke="#7A4010" stroke-width="1.8"/>
  <rect x="8" y="18" width="32" height="7" rx="3.5" fill="none" stroke="#4A1A06" stroke-width="1"/>
</svg>
