<svg xmlns="http://www.w3.org/2000/svg" viewBox="0 0 48 48">
  <!-- Shadow -->
  <ellipse cx="24" cy="46" rx="14" ry="3" fill="#00000022"/>
  <!-- Crust outer edge -->
  <path d="M4 44 Q24 4 44 44 Z" fill="#BF6B0A"/>
  <!-- Crust golden face -->
  <path d="M6 43 Q24 7 42 43 Z" fill="#E8921E"/>
  <!-- Crust bubbles/highlight -->
  <circle cx="10" cy="41" r="2" fill="#F5A82A" opacity="0.6"/>
  <circle cx="16" cy="38" r="1.5" fill="#F5A82A" opacity="0.6"/>
  <circle cx="38" cy="41" r="2" fill="#F5A82A" opacity="0.6"/>
  <!-- Sauce base -->
  <path d="M10 43 Q24 10 38 43 Z" fill="#E53935"/>
  <!-- Cheese blobs -->
  <ellipse cx="20" cy="36" rx="7" ry="4.5" fill="#FFF176" opacity="0.92"/>
  <ellipse cx="29" cy="31" rx="6" ry="4" fill="#FFF176" opacity="0.92"/>
  <ellipse cx="22" cy="22" rx="5" ry="3.5" fill="#FFF176" opacity="0.92"/>
  <!-- Cheese melt lines -->
  <path d="M14 37 Q18 34 22 38" fill="none" stroke="#F9A825" stroke-width="1" opacity="0.6"/>
  <path d="M27 32 Q31 29 34 33" fill="none" stroke="#F9A825" stroke-width="1" opacity="0.6"/>
  <!-- Pepperoni -->
  <circle cx="24" cy="36" r="3.8" fill="#B71C1C"/>
  <circle cx="24" cy="36" r="2.8" fill="#C62828"/>
  <circle cx="17" cy="27" r="3.2" fill="#B71C1C"/>
  <circle cx="17" cy="27" r="2.3" fill="#C62828"/>
  <circle cx="32" cy="39" r="2.8" fill="#B71C1C"/>
  <circle cx="32" cy="39" r="2" fill="#C62828"/>
  <circle cx="30" cy="21" r="2.5" fill="#B71C1C"/>
  <circle cx="30" cy="21" r="1.8" fill="#C62828"/>
  <!-- Herb specks -->
  <circle cx="21" cy="32" r="0.8" fill="#388E3C"/>
  <circle cx="28" cy="36" r="0.8" fill="#388E3C"/>
  <circle cx="25" cy="25" r="0.8" fill="#388E3C"/>
  <!-- Crust outline -->
  <path d="M4 44 Q24 4 44 44" fill="none" stroke="#7A4010" stroke-width="2" stroke-linejoin="round" stroke-linecap="round"/>
</svg>
