<svg xmlns="http://www.w3.org/2000/svg" viewBox="0 0 48 48">
  <!-- Bowl shadow -->
  <ellipse cx="24" cy="44" rx="16" ry="4" fill="#00000020"/>
  <!-- Bowl body -->
  <path d="M7 26 Q7 43 24 43 Q41 43 41 26 Z" fill="#EDE0CE"/>
  <!-- Bowl interior -->
  <path d="M9 27 Q9 41 24 41 Q39 41 39 27 Z" fill="#E2D4BE"/>
  <!-- Lettuce base -->
  <ellipse cx="24" cy="26" rx="15" ry="9" fill="#4CAF50"/>
  <!-- Lettuce depth -->
  <ellipse cx="24" cy="24" rx="12" ry="7" fill="#66BB6A"/>
  <!-- Leaf edges -->
  <path d="M10 26 C13 22 16 25 19 21 C22 25 25 21 28 25 C31 21 34 25 37 23" fill="none" stroke="#388E3C" stroke-width="1.5" stroke-linecap="round"/>
  <!-- Tomato -->
  <circle cx="16" cy="25" r="4.5" fill="#EF5350"/>
  <circle cx="15.5" cy="23.5" r="1.8" fill="#FF7043" opacity="0.6"/>
  <!-- Carrot -->
  <ellipse cx="31" cy="26" rx="4" ry="3" fill="#FF8F00"/>
  <ellipse cx="30.5" cy="25" rx="1.5" ry="1" fill="#FFA726" opacity="0.6"/>
  <!-- Corn -->
  <ellipse cx="24" cy="23" rx="3" ry="2" fill="#FDD835"/>
  <!-- Bowl rim -->
  <ellipse cx="24" cy="26" rx="17" ry="5" fill="#F5EFE5"/>
  <ellipse cx="24" cy="26" rx="15" ry="3.5" fill="#EDE0CE"/>
  <!-- Rim highlight -->
  <path d="M12 24 Q24 22 36 24" fill="none" stroke="#FFFFFF" stroke-width="1.5" opacity="0.45"/>
  <!-- Bowl outline -->
  <path d="M7 26 Q7 43 24 43 Q41 43 41 26" fill="none" stroke="#8D6E63" stroke-width="1.8" stroke-linecap="round"/>
  <ellipse cx="24" cy="26" rx="17" ry="5" fill="none" stroke="#8D6E63" stroke-width="1.5"/>
</svg>
