<svg xmlns="http://www.w3.org/2000/svg" viewBox="0 0 48 48">
  <!-- Shadow -->
  <ellipse cx="24" cy="44" rx="18" ry="4" fill="#00000020"/>
  <!-- Left nigiri - rice -->
  <rect x="4" y="24" width="18" height="14" rx="4" fill="#F5F0E8"/>
  <rect x="4" y="30" width="18" height="8" rx="3" fill="#E8E0D0"/>
  <!-- Left nori band -->
  <rect x="4" y="30" width="18" height="5" rx="2" fill="#1B2820"/>
  <!-- Left topping - salmon -->
  <ellipse cx="13" cy="23" rx="9" ry="4.5" fill="#FF7043"/>
  <ellipse cx="12" cy="22" rx="5.5" ry="2.5" fill="#FF8A65" opacity="0.7"/>
  <path d="M7 23 Q10 20 13 22 Q16 20 19 23" fill="none" stroke="#FF5722" stroke-width="0.8" opacity="0.6"/>
  <!-- Left outline -->
  <rect x="4" y="20" width="18" height="18" rx="4" fill="none" stroke="#3E2723" stroke-width="1.5"/>
  <!-- Right nigiri - rice -->
  <rect x="26" y="24" width="18" height="14" rx="4" fill="#F5F0E8"/>
  <rect x="26" y="30" width="18" height="8" rx="3" fill="#E8E0D0"/>
  <!-- Right nori band -->
  <rect x="26" y="30" width="18" height="5" rx="2" fill="#1B2820"/>
  <!-- Right topping - tuna -->
  <ellipse cx="35" cy="23" rx="9" ry="4.5" fill="#C62828"/>
  <ellipse cx="34" cy="22" rx="5.5" ry="2.5" fill="#D32F2F" opacity="0.7"/>
  <path d="M29 23 Q32 20 35 22 Q38 20 41 23" fill="none" stroke="#B71C1C" stroke-width="0.8" opacity="0.6"/>
  <!-- Right outline -->
  <rect x="26" y="20" width="18" height="18" rx="4" fill="none" stroke="#3E2723" stroke-width="1.5"/>
  <!-- Rice texture dots -->
  <circle cx="10" cy="27" r="0.8" fill="#D4C8B0"/>
  <circle cx="13" cy="29" r="0.8" fill="#D4C8B0"/>
  <circle cx="16" cy="27" r="0.8" fill="#D4C8B0"/>
  <circle cx="32" cy="27" r="0.8" fill="#D4C8B0"/>
  <circle cx="35" cy="29" r="0.8" fill="#D4C8B0"/>
  <circle cx="38" cy="27" r="0.8" fill="#D4C8B0"/>
  <!-- Wasabi garnish -->
  <ellipse cx="24" cy="40" rx="5" ry="2.5" fill="#66BB6A" opacity="0.9"/>
</svg>
