<svg xmlns="http://www.w3.org/2000/svg" viewBox="0 0 32 36" width="32" height="36">
  <!-- Small pot -->
  <path d="M8,24 L10,34 L22,34 L24,24 Z" fill="#B85C24"/>
  <rect x="8" y="24" width="16" height="3.5" rx="1.5" fill="#CC6A2E"/>
  <!-- Soil -->
  <ellipse cx="16" cy="24.5" rx="8" ry="2.5" fill="#5C3A1E"/>
  <!-- Stems -->
  <path d="M16,24 Q15,19 13,14 Q12,10 14,7" stroke="#2E8018" stroke-width="1.8" fill="none" stroke-linecap="round"/>
  <path d="M16,23 Q18,17 20,13 Q21,9 19,6" stroke="#2E8018" stroke-width="1.6" fill="none" stroke-linecap="round"/>
  <path d="M16,22 Q16,16 15,12 Q15,8 16,5" stroke="#2E8018" stroke-width="1.4" fill="none" stroke-linecap="round"/>
  <!-- Leaves -->
  <ellipse cx="12" cy="11" rx="6" ry="3.5" fill="#2A8A18" transform="rotate(-35,12,11)"/>
  <ellipse cx="20" cy="10" rx="5.5" ry="3" fill="#2A8A18" transform="rotate(30,20,10)"/>
  <ellipse cx="15" cy="7" rx="5" ry="3" fill="#2A8A18" transform="rotate(-10,15,7)"/>
  <!-- Highlights -->
  <ellipse cx="12" cy="10" rx="2.5" ry="1.5" fill="#4ABB28" opacity="0.5" transform="rotate(-35,12,10)"/>
  <ellipse cx="20" cy="9" rx="2" ry="1.2" fill="#4ABB28" opacity="0.5" transform="rotate(30,20,9)"/>
</svg>
