<svg xmlns="http://www.w3.org/2000/svg" viewBox="0 0 48 72">
  <!-- Shadow -->
  <ellipse cx="24" cy="70" rx="11" ry="2.5" fill="#0000001A"/>
  <!-- Yellow sneakers -->
  <ellipse cx="19.5" cy="68" rx="5.5" ry="2.5" fill="#FFEB3B"/>
  <ellipse cx="28.5" cy="68" rx="5.5" ry="2.5" fill="#FFEB3B"/>
  <path d="M14 67 Q20 65 25 67" fill="none" stroke="#F57F17" stroke-width="0.8"/>
  <path d="M23 67 Q29 65 34 67" fill="none" stroke="#F57F17" stroke-width="0.8"/>
  <!-- Dark jeans -->
  <rect x="17" y="50" width="6" height="20" rx="3" fill="#37474F"/>
  <rect x="25" y="50" width="6" height="20" rx="3" fill="#37474F"/>
  <!-- Bright teal hoodie -->
  <rect x="12" y="28" width="24" height="24" rx="7" fill="#00ACC1"/>
  <!-- Hoodie kangaroo pocket -->
  <path d="M17 40 L31 40 L31 48 Q24 50 17 48 Z" fill="#0097A7"/>
  <line x1="24" y1="40" x2="24" y2="49" stroke="#0097A7" stroke-width="0.8"/>
  <!-- Drawstrings -->
  <line x1="22" y1="28" x2="21" y2="35" stroke="#006064" stroke-width="1"/>
  <line x1="26" y1="28" x2="27" y2="35" stroke="#006064" stroke-width="1"/>
  <circle cx="21" cy="35.5" r="1" fill="#006064"/>
  <circle cx="27" cy="35.5" r="1" fill="#006064"/>
  <!-- Hood draped back -->
  <path d="M12 28 Q10 22 14 20 L14 28 Z" fill="#00838F"/>
  <path d="M36 28 Q38 22 34 20 L34 28 Z" fill="#00838F"/>
  <!-- Left arm -->
  <path d="M12 30 Q5 36 6 46 L11 45 L12 30 Z" fill="#00ACC1"/>
  <rect x="5" y="43" width="8" height="4" rx="2" fill="#B2EBF2" opacity="0.7"/>
  <ellipse cx="9" cy="48" rx="3.5" ry="2.5" fill="#FDA07A"/>
  <!-- Right arm -->
  <path d="M36 30 Q43 36 42 46 L37 45 L36 30 Z" fill="#00ACC1"/>
  <rect x="35" y="43" width="8" height="4" rx="2" fill="#B2EBF2" opacity="0.7"/>
  <ellipse cx="39" cy="48" rx="3.5" ry="2.5" fill="#FDA07A"/>
  <!-- Neck -->
  <rect x="21" y="22" width="6" height="8" rx="3" fill="#FDA07A"/>
  <!-- Head -->
  <circle cx="24" cy="14" r="12" fill="#FDA07A"/>
  <!-- Ears -->
  <path d="M12 16 Q10 13 11 18 Q13 20 14 16 Z" fill="#E88060"/>
  <path d="M36 16 Q38 13 37 18 Q35 20 34 16 Z" fill="#E88060"/>
  <!-- Messy spiky hair -->
  <path d="M12 12 Q16 6 18 5 Q20 4 22 2 Q24 -1 26 2 Q28 4 30 1 Q33 4 36 12 L36 14 Q30 8 24 7 Q18 8 12 14 Z" fill="#1A1A2E"/>
  <rect x="12" y="11" width="3" height="6" rx="1.5" fill="#1A1A2E"/>
  <rect x="33" y="11" width="3" height="6" rx="1.5" fill="#1A1A2E"/>
  <!-- Spike tips highlighted -->
  <path d="M18 5 Q16 0 14 4" fill="none" stroke="#16213E" stroke-width="2" stroke-linecap="round"/>
  <path d="M24 2 Q23 -1 22 2" fill="none" stroke="#16213E" stroke-width="2" stroke-linecap="round"/>
  <path d="M30 1 Q33 -1 35 4" fill="none" stroke="#16213E" stroke-width="2.5" stroke-linecap="round"/>
  <!-- Left eye wide energetic -->
  <circle cx="19.5" cy="14" r="3.2" fill="white"/>
  <circle cx="20" cy="14.5" r="2" fill="#1A1A2E"/>
  <circle cx="20.5" cy="13.8" r="0.7" fill="white"/>
  <!-- Right eye -->
  <circle cx="28.5" cy="14" r="3.2" fill="white"/>
  <circle cx="28" cy="14.5" r="2" fill="#1A1A2E"/>
  <circle cx="28.5" cy="13.8" r="0.7" fill="white"/>
  <!-- Raised energetic eyebrows -->
  <path d="M17 10 Q19.5 8.5 22 10" stroke="#1A1A2E" stroke-width="1.5" fill="none" stroke-linecap="round"/>
  <path d="M26 10 Q28.5 8.5 31 10" stroke="#1A1A2E" stroke-width="1.5" fill="none" stroke-linecap="round"/>
  <!-- Nose -->
  <path d="M23 17.5 Q24 19 25 17.5" stroke="#C07050" stroke-width="1" fill="none" stroke-linecap="round"/>
  <!-- Big grin -->
  <path d="M19.5 20 Q24 24 28.5 20" stroke="#C07050" stroke-width="1.8" fill="none" stroke-linecap="round"/>
  <!-- Energetic cheek blush -->
  <circle cx="16.5" cy="19" r="3" fill="#FFAA88" opacity="0.4"/>
  <circle cx="31.5" cy="19" r="3" fill="#FFAA88" opacity="0.4"/>
  <!-- Outline -->
  <circle cx="24" cy="14" r="12" fill="none" stroke="#8B4A25" stroke-width="1.5"/>
</svg>
