<svg xmlns="http://www.w3.org/2000/svg" viewBox="0 0 48 72">
  <ellipse cx="24" cy="69.5" rx="12" ry="2.6" fill="#0000001f"/>
  <rect x="16.5" y="50" width="7" height="16" rx="3.5" fill="#5B6B86" stroke="#454f63" stroke-width="1.2"/>
  <rect x="24.5" y="50" width="7" height="16" rx="3.5" fill="#5B6B86" stroke="#454f63" stroke-width="1.2"/>
  <ellipse cx="19" cy="67.5" rx="5" ry="3" fill="#3a3f4a"/>
  <ellipse cx="29" cy="67.5" rx="5" ry="3" fill="#3a3f4a"/>
  <rect x="11" y="33" width="26" height="23" rx="10" fill="#9b59c6" stroke="#693d87" stroke-width="2"/>
  <path d="M16 34 Q24 39 32 34" fill="none" stroke="#bd6df2" stroke-width="1.5" opacity="0.6"/>
  <rect x="7.5" y="35" width="8" height="15" rx="4" fill="#9b59c6" stroke="#693d87" stroke-width="1.6"/>
  <rect x="32.5" y="35" width="8" height="15" rx="4" fill="#9b59c6" stroke="#693d87" stroke-width="1.6"/>
  <circle cx="11.5" cy="50" r="3.6" fill="#fad2b0" stroke="#cdac90" stroke-width="1.2"/>
  <circle cx="36.5" cy="50" r="3.6" fill="#fad2b0" stroke="#cdac90" stroke-width="1.2"/>
  <rect x="20.5" y="27" width="7" height="7" rx="3" fill="#fad2b0"/>
  <circle cx="10.5" cy="16" r="3" fill="#fad2b0" stroke="#cdac90" stroke-width="1"/>
  <circle cx="37.5" cy="16" r="3" fill="#fad2b0" stroke="#cdac90" stroke-width="1"/>
  <circle cx="24" cy="15.5" r="14" fill="#fad2b0" stroke="#cdac90" stroke-width="2"/>
  <path d="M8 24 Q6 4 24 2 Q42 4 40 24 Q40 14 34 11 L34 22 Q24 12 14 22 L14 11 Q8 14 8 24 Z" fill="#2a2a2a"/>
  <circle cx="15.5" cy="19" r="3.2" fill="#FF8A8A" opacity="0.45"/>
  <circle cx="32.5" cy="19" r="3.2" fill="#FF8A8A" opacity="0.45"/>
</svg>