<svg xmlns="http://www.w3.org/2000/svg" viewBox="0 0 48 72">
  <!-- Shadow -->
  <ellipse cx="24" cy="70" rx="12" ry="2.8" fill="#0000001A"/>
  <!-- Pink heeled shoes -->
  <ellipse cx="19.5" cy="68" rx="5" ry="2.5" fill="#E91E63"/>
  <ellipse cx="28.5" cy="68" rx="5" ry="2.5" fill="#E91E63"/>
  <!-- Flowy dress skirt -->
  <path d="M11 40 Q8 58 16 64 L32 64 Q40 58 37 40 Z" fill="#F48FB1"/>
  <!-- Dress overlay shimmer -->
  <path d="M13 43 Q10 57 17 63 L31 63 Q38 57 35 43 Z" fill="#FCE4EC" opacity="0.4"/>
  <!-- Dress bodice -->
  <path d="M14 28 L34 28 L37 40 L11 40 Z" fill="#E91E63"/>
  <!-- Sweetheart neckline -->
  <path d="M18 28 Q21 31 24 29 Q27 31 30 28" fill="#FDE0D0"/>
  <!-- Heart necklace -->
  <path d="M22 31 Q24 33 26 31 Q27 29 24 28 Q21 29 22 31 Z" fill="#C2185B" opacity="0.85"/>
  <!-- Dress sash belt -->
  <rect x="11" y="39" width="26" height="3" rx="1.5" fill="#C2185B"/>
  <!-- Bow on sash -->
  <polygon points="22,40 24,41.5 22,43" fill="#FCE4EC"/>
  <polygon points="26,40 24,41.5 26,43" fill="#FCE4EC"/>
  <circle cx="24" cy="41.5" r="1" fill="#E91E63"/>
  <!-- Left arm elegant -->
  <path d="M14 30 Q7 37 8 47 L13 46 L14 30 Z" fill="#E91E63"/>
  <ellipse cx="10" cy="48" rx="3" ry="2.5" fill="#FDE0D0"/>
  <!-- Right arm -->
  <path d="M34 30 Q41 37 40 47 L35 46 L34 30 Z" fill="#E91E63"/>
  <ellipse cx="38" cy="48" rx="3" ry="2.5" fill="#FDE0D0"/>
  <!-- Neck -->
  <rect x="21" y="22" width="6" height="8" rx="3" fill="#FDE0D0"/>
  <!-- Head -->
  <circle cx="24" cy="14" r="12" fill="#FDE0D0"/>
  <!-- Ears with pink earrings -->
  <path d="M12 16 Q10 13 11 18 Q13 20 14 16 Z" fill="#EBBCA8"/>
  <path d="M36 16 Q38 13 37 18 Q35 20 34 16 Z" fill="#EBBCA8"/>
  <circle cx="12.5" cy="18" r="1.5" fill="#E91E63"/>
  <circle cx="35.5" cy="18" r="1.5" fill="#E91E63"/>
  <!-- Long flowing hair wide silhouette -->
  <path d="M10 12 Q9 35 13 40 L12 12 Z" fill="#3E1F00"/>
  <path d="M38 12 Q39 35 35 40 L36 12 Z" fill="#3E1F00"/>
  <path d="M10 12 Q12 3 24 2 Q36 3 38 12 L38 16 Q32 7 24 6 Q16 7 10 16 Z" fill="#3E1F00"/>
  <rect x="10" y="12" width="3" height="9" rx="1.5" fill="#3E1F00"/>
  <rect x="35" y="12" width="3" height="9" rx="1.5" fill="#3E1F00"/>
  <path d="M10 25 Q13 22 15 26" fill="none" stroke="#5D3010" stroke-width="1.2"/>
  <path d="M33 25 Q36 22 37 26" fill="none" stroke="#5D3010" stroke-width="1.2"/>
  <!-- Left eye -->
  <circle cx="19.5" cy="14" r="3.2" fill="white"/>
  <circle cx="20" cy="14.5" r="2" fill="#3E1F00"/>
  <circle cx="20.5" cy="13.8" r="0.7" fill="white"/>
  <!-- Right eye -->
  <circle cx="28.5" cy="14" r="3.2" fill="white"/>
  <circle cx="28" cy="14.5" r="2" fill="#3E1F00"/>
  <circle cx="28.5" cy="13.8" r="0.7" fill="white"/>
  <!-- Feminine eyebrows -->
  <path d="M17 10 Q19.5 9 22 10" stroke="#3E1F00" stroke-width="1.5" fill="none" stroke-linecap="round"/>
  <path d="M26 10 Q28.5 9 31 10" stroke="#3E1F00" stroke-width="1.5" fill="none" stroke-linecap="round"/>
  <!-- Nose -->
  <path d="M23 17.5 Q24 19 25 17.5" stroke="#C07878" stroke-width="0.9" fill="none" stroke-linecap="round"/>
  <!-- Sweet smile -->
  <path d="M20 21 Q24 24 28 21" stroke="#C07878" stroke-width="1.8" fill="none" stroke-linecap="round"/>
  <!-- Rosy cheeks -->
  <circle cx="16.5" cy="19" r="3.5" fill="#FFAACC" opacity="0.45"/>
  <circle cx="31.5" cy="19" r="3.5" fill="#FFAACC" opacity="0.45"/>
  <!-- Outline -->
  <circle cx="24" cy="14" r="12" fill="none" stroke="#8B4A25" stroke-width="1.5"/>
</svg>
