<svg xmlns="http://www.w3.org/2000/svg" viewBox="0 0 48 72">
  <ellipse cx="24" cy="69.5" rx="12" ry="2.6" fill="#0000001f"/>
  <rect x="16.5" y="50" width="7" height="16" rx="3.5" fill="#5B6B86" stroke="#454f63" stroke-width="1.2"/>
  <rect x="24.5" y="50" width="7" height="16" rx="3.5" fill="#5B6B86" stroke="#454f63" stroke-width="1.2"/>
  <ellipse cx="19" cy="67.5" rx="5" ry="3" fill="#3a3f4a"/>
  <ellipse cx="29" cy="67.5" rx="5" ry="3" fill="#3a3f4a"/>
  <rect x="11" y="33" width="26" height="23" rx="10" fill="#ff8a3d" stroke="#ad5e29" stroke-width="2"/>
  <path d="M16 34 Q24 39 32 34" fill="none" stroke="#ffa84a" stroke-width="1.5" opacity="0.6"/>
  <rect x="7.5" y="35" width="8" height="15" rx="4" fill="#ff8a3d" stroke="#ad5e29" stroke-width="1.6"/>
  <rect x="32.5" y="35" width="8" height="15" rx="4" fill="#ff8a3d" stroke="#ad5e29" stroke-width="1.6"/>
  <circle cx="11.5" cy="50" r="3.6" fill="#f3c19e" stroke="#c79e82" stroke-width="1.2"/>
  <circle cx="36.5" cy="50" r="3.6" fill="#f3c19e" stroke="#c79e82" stroke-width="1.2"/>
  <rect x="20.5" y="27" width="7" height="7" rx="3" fill="#f3c19e"/>
  <circle cx="10.5" cy="16" r="3" fill="#f3c19e" stroke="#c79e82" stroke-width="1"/>
  <circle cx="37.5" cy="16" r="3" fill="#f3c19e" stroke="#c79e82" stroke-width="1"/>
  <circle cx="24" cy="15.5" r="14" fill="#f3c19e" stroke="#c79e82" stroke-width="2"/>
  <path d="M10 15 Q9 4 24 4 Q39 4 38 15 Q35 9 24 9 Q13 9 10 15 Z" fill="#2a2a2a"/>
  <path d="M6 13 Q24 4 42 13 L42 16 Q24 8 6 16 Z" fill="#1d1d1d"/>
  <rect x="20" y="2" width="8" height="4" rx="2" fill="#1d1d1d"/>
  <circle cx="15.5" cy="19" r="3.2" fill="#FF8A8A" opacity="0.45"/>
  <circle cx="32.5" cy="19" r="3.2" fill="#FF8A8A" opacity="0.45"/>
</svg>