<svg xmlns="http://www.w3.org/2000/svg" viewBox="0 0 48 72">
  <ellipse cx="24" cy="69.5" rx="12" ry="2.6" fill="#0000001f"/>
  <rect x="16.5" y="50" width="7" height="16" rx="3.5" fill="#5B6B86" stroke="#454f63" stroke-width="1.2"/>
  <rect x="24.5" y="50" width="7" height="16" rx="3.5" fill="#5B6B86" stroke="#454f63" stroke-width="1.2"/>
  <ellipse cx="19" cy="67.5" rx="5" ry="3" fill="#3a3f4a"/>
  <ellipse cx="29" cy="67.5" rx="5" ry="3" fill="#3a3f4a"/>
  <rect x="11" y="33" width="26" height="23" rx="10" fill="#e23b57" stroke="#9a283b" stroke-width="2"/>
  <path d="M16 34 Q24 39 32 34" fill="none" stroke="#ff486a" stroke-width="1.5" opacity="0.6"/>
  <rect x="7.5" y="35" width="8" height="15" rx="4" fill="#e23b57" stroke="#9a283b" stroke-width="1.6"/>
  <rect x="32.5" y="35" width="8" height="15" rx="4" fill="#e23b57" stroke="#9a283b" stroke-width="1.6"/>
  <circle cx="11.5" cy="50" r="3.6" fill="#fad2b0" stroke="#cdac90" stroke-width="1.2"/>
  <circle cx="36.5" cy="50" r="3.6" fill="#fad2b0" stroke="#cdac90" stroke-width="1.2"/>
  <rect x="20.5" y="27" width="7" height="7" rx="3" fill="#fad2b0"/>
  <circle cx="10.5" cy="16" r="3" fill="#fad2b0" stroke="#cdac90" stroke-width="1"/>
  <circle cx="37.5" cy="16" r="3" fill="#fad2b0" stroke="#cdac90" stroke-width="1"/>
  <circle cx="24" cy="15.5" r="14" fill="#fad2b0" stroke="#cdac90" stroke-width="2"/>
  <ellipse cx="24" cy="3.5" rx="6" ry="5" fill="#3a2418"/>
  <path d="M9 16 Q9 2 24 2 Q39 2 39 16 Q39 9 24 8 Q9 9 9 16 Z" fill="#3a2418"/>
  <circle cx="15.5" cy="19" r="3.2" fill="#FF8A8A" opacity="0.45"/>
  <circle cx="32.5" cy="19" r="3.2" fill="#FF8A8A" opacity="0.45"/>
</svg>