<svg xmlns="http://www.w3.org/2000/svg" viewBox="0 0 48 72">
  <!-- Shadow -->
  <ellipse cx="24" cy="70" rx="12" ry="3" fill="#0000001A"/>
  <!-- Dress shoes -->
  <ellipse cx="20" cy="68" rx="5.5" ry="2.5" fill="#1A1A1A"/>
  <ellipse cx="29" cy="68" rx="5.5" ry="2.5" fill="#1A1A1A"/>
  <!-- Pants charcoal -->
  <rect x="16" y="50" width="7" height="20" rx="3" fill="#263238"/>
  <rect x="25" y="50" width="7" height="20" rx="3" fill="#263238"/>
  <!-- Suit jacket body -->
  <rect x="12" y="28" width="24" height="24" rx="6" fill="#37474F"/>
  <!-- White shirt center -->
  <path d="M21 28 L27 28 L27 44 Q24 46 21 44 Z" fill="#ECEFF1"/>
  <!-- Jacket lapels -->
  <path d="M12 28 L21 28 L21 44 Q16 43 12 37 Z" fill="#455A64"/>
  <path d="M36 28 L27 28 L27 44 Q32 43 36 37 Z" fill="#455A64"/>
  <!-- Blue tie -->
  <polygon points="22,29 24,32 22,44 24,46 26,44 26,29" fill="#1565C0"/>
  <polygon points="21,28 27,28 26,29 24,32 22,29" fill="#1976D2"/>
  <path d="M23 35 L25 35" stroke="#0D47A1" stroke-width="0.8"/>
  <path d="M22.5 38 L25.5 38" stroke="#0D47A1" stroke-width="0.8"/>
  <!-- Left arm -->
  <path d="M12 30 Q5 36 6 46 L11 46 L12 30 Z" fill="#37474F"/>
  <rect x="5" y="44" width="8" height="4" rx="2" fill="#ECEFF1" opacity="0.85"/>
  <ellipse cx="9" cy="48" rx="3.5" ry="2.5" fill="#D4845A"/>
  <!-- Right arm with briefcase -->
  <path d="M36 30 Q43 36 42 46 L37 46 L36 30 Z" fill="#37474F"/>
  <rect x="36" y="44" width="8" height="4" rx="2" fill="#ECEFF1" opacity="0.85"/>
  <ellipse cx="40" cy="48" rx="3.5" ry="2.5" fill="#D4845A"/>
  <!-- Briefcase -->
  <rect x="36" y="48" width="11" height="8" rx="2" fill="#5D4037"/>
  <rect x="39" y="46" width="5" height="3" rx="1" fill="none" stroke="#5D4037" stroke-width="1.5"/>
  <rect x="37" y="51" width="9" height="1" rx="0.5" fill="#795548"/>
  <circle cx="41.5" cy="52" r="0.9" fill="#A1887F"/>
  <!-- Neck -->
  <rect x="21" y="22" width="6" height="8" rx="3" fill="#D4845A"/>
  <!-- Head -->
  <circle cx="24" cy="14" r="12" fill="#D4845A"/>
  <!-- Ears -->
  <path d="M12 16 Q10 13 11 18 Q13 20 14 16 Z" fill="#BC6E46"/>
  <path d="M36 16 Q38 13 37 18 Q35 20 34 16 Z" fill="#BC6E46"/>
  <!-- Short side-parted hair -->
  <path d="M12 11 Q13 3 24 2 Q35 3 36 11 L36 14 Q32 5 24 4 Q16 5 12 14 Z" fill="#3E2723"/>
  <rect x="12" y="11" width="3" height="5" rx="1.5" fill="#3E2723"/>
  <path d="M18 6 Q24 4 30 6" fill="none" stroke="#5D4037" stroke-width="1"/>
  <!-- Left eye -->
  <circle cx="19.5" cy="14" r="3" fill="white"/>
  <circle cx="20" cy="14.5" r="1.9" fill="#3E2723"/>
  <circle cx="20.5" cy="13.8" r="0.6" fill="white"/>
  <!-- Right eye -->
  <circle cx="28.5" cy="14" r="3" fill="white"/>
  <circle cx="28" cy="14.5" r="1.9" fill="#3E2723"/>
  <circle cx="28.5" cy="13.8" r="0.6" fill="white"/>
  <!-- Eyebrows professional -->
  <path d="M17 10 Q19.5 9 22 10" stroke="#3E2723" stroke-width="1.5" fill="none" stroke-linecap="round"/>
  <path d="M26 10 Q28.5 9 31 10" stroke="#3E2723" stroke-width="1.5" fill="none" stroke-linecap="round"/>
  <!-- Nose -->
  <path d="M23 17.5 Q24 19 25 17.5" stroke="#A05030" stroke-width="1" fill="none" stroke-linecap="round"/>
  <!-- Professional smile -->
  <path d="M21 20.5 Q24 22 27 20.5" stroke="#A05030" stroke-width="1.5" fill="none" stroke-linecap="round"/>
  <!-- Outline -->
  <circle cx="24" cy="14" r="12" fill="none" stroke="#7A3A18" stroke-width="1.5"/>
</svg>
