<svg xmlns="http://www.w3.org/2000/svg" viewBox="0 0 48 76">
  <!-- Shadow -->
  <ellipse cx="24" cy="74" rx="13" ry="3.5" fill="#0000001A"/>
  <!-- Pants -->
  <rect x="16" y="52" width="7" height="20" rx="3" fill="#14143A"/>
  <rect x="25" y="52" width="7" height="20" rx="3" fill="#14143A"/>
  <!-- Shoes -->
  <ellipse cx="19.5" cy="72" rx="5.5" ry="2.8" fill="#0A0A18"/>
  <ellipse cx="28.5" cy="72" rx="5.5" ry="2.8" fill="#0A0A18"/>
  <ellipse cx="18.5" cy="71" rx="2.5" ry="1.2" fill="#222240" opacity="0.5"/>
  <ellipse cx="27.5" cy="71" rx="2.5" ry="1.2" fill="#222240" opacity="0.5"/>
  <!-- Jacket body -->
  <rect x="11" y="28" width="26" height="26" rx="7" fill="#1A2472"/>
  <!-- Shirt center white -->
  <path d="M22 28 L26 28 L26 45 Q24 47 22 45 Z" fill="#FAFAFA"/>
  <!-- Left lapel -->
  <path d="M11 28 L22 28 L22 45 Q16 44 11 37 Z" fill="#1E2B85"/>
  <!-- Right lapel -->
  <path d="M37 28 L26 28 L26 45 Q32 44 37 37 Z" fill="#1E2B85"/>
  <!-- Pocket square -->
  <rect x="12" y="31" width="6" height="5" rx="1.5" fill="#FAFAFA" opacity="0.65"/>
  <!-- Bow tie -->
  <polygon points="20,33 24,36 20,39" fill="#C62828"/>
  <polygon points="28,33 24,36 28,39" fill="#C62828"/>
  <circle cx="24" cy="36" r="2" fill="#D32F2F"/>
  <!-- Left arm hanging -->
  <path d="M11 32 Q4 37 5 47 L10 47 L11 32 Z" fill="#1A2472"/>
  <!-- Left cuff + hand -->
  <rect x="5" y="45" width="8" height="4" rx="2" fill="#FAFAFA" opacity="0.85"/>
  <ellipse cx="9" cy="48" rx="3.5" ry="2.5" fill="#FDA07A"/>
  <!-- Right arm (tray position) -->
  <path d="M37 32 Q44 37 43 47 L38 47 L37 32 Z" fill="#1A2472"/>
  <!-- Right cuff + hand -->
  <rect x="35" y="45" width="8" height="4" rx="2" fill="#FAFAFA" opacity="0.85"/>
  <ellipse cx="39" cy="48" rx="3.5" ry="2.5" fill="#FDA07A"/>
  <!-- Neck -->
  <rect x="21" y="22" width="6" height="8" rx="3" fill="#FDA07A"/>
  <!-- Head -->
  <circle cx="24" cy="15" r="13" fill="#FDA07A"/>
  <!-- Ear left -->
  <path d="M11 17 Q9 14 10 19 Q12 21 13 17 Z" fill="#E88060"/>
  <!-- Ear right -->
  <path d="M37 17 Q39 14 38 19 Q36 21 35 17 Z" fill="#E88060"/>
  <!-- Hair -->
  <path d="M11 11 Q13 3 24 2 Q35 3 37 11 L37 16 Q32 6 24 5 Q16 6 11 16 Z" fill="#2C1810"/>
  <rect x="11" y="11" width="3.5" height="7" rx="1.7" fill="#2C1810"/>
  <rect x="33.5" y="11" width="3.5" height="7" rx="1.7" fill="#2C1810"/>
  <path d="M14 5 Q20 3 27 5" fill="none" stroke="#4A2A15" stroke-width="1"/>
  <!-- Left eye -->
  <circle cx="19" cy="14" r="3.2" fill="white"/>
  <circle cx="19.5" cy="14.5" r="2" fill="#2C1810"/>
  <circle cx="20" cy="13.8" r="0.7" fill="white"/>
  <!-- Right eye -->
  <circle cx="29" cy="14" r="3.2" fill="white"/>
  <circle cx="28.5" cy="14.5" r="2" fill="#2C1810"/>
  <circle cx="29" cy="13.8" r="0.7" fill="white"/>
  <!-- Eyebrows -->
  <path d="M16 10 Q19 9 22 10" stroke="#2C1810" stroke-width="1.5" fill="none" stroke-linecap="round"/>
  <path d="M26 10 Q29 9 32 10" stroke="#2C1810" stroke-width="1.5" fill="none" stroke-linecap="round"/>
  <!-- Nose -->
  <path d="M23 18 Q24 19.5 25 18" stroke="#C07050" stroke-width="1" fill="none" stroke-linecap="round"/>
  <!-- Smile -->
  <path d="M20 21 Q24 24.5 28 21" stroke="#C07050" stroke-width="1.8" fill="none" stroke-linecap="round"/>
  <!-- Cheeks -->
  <circle cx="17" cy="20" r="3" fill="#FFAA88" opacity="0.3"/>
  <circle cx="31" cy="20" r="3" fill="#FFAA88" opacity="0.3"/>
  <!-- Outlines -->
  <circle cx="24" cy="15" r="13" fill="none" stroke="#8B4A25" stroke-width="1.5"/>
  <rect x="11" y="28" width="26" height="26" rx="7" fill="none" stroke="#0D1550" stroke-width="1.5"/>
</svg>
