<svg xmlns="http://www.w3.org/2000/svg" viewBox="0 0 48 76">
  <ellipse cx="24" cy="73" rx="13" ry="3" fill="#0000001f"/>
  <!-- legs -->
  <rect x="16.5" y="54" width="7" height="16" rx="3.5" fill="#1f2a55" stroke="#141b3a" stroke-width="1.3"/>
  <rect x="24.5" y="54" width="7" height="16" rx="3.5" fill="#1f2a55" stroke="#141b3a" stroke-width="1.3"/>
  <ellipse cx="19" cy="71.5" rx="5.2" ry="3" fill="#26262e"/>
  <ellipse cx="29" cy="71.5" rx="5.2" ry="3" fill="#26262e"/>
  <!-- arms -->
  <rect x="7" y="36" width="8.5" height="16" rx="4.2" fill="#28368a" stroke="#192358" stroke-width="1.6"/>
  <rect x="32.5" y="36" width="8.5" height="16" rx="4.2" fill="#28368a" stroke="#192358" stroke-width="1.6"/>
  <circle cx="11.2" cy="52" r="3.8" fill="#fbd2af" stroke="#d3a883" stroke-width="1.2"/>
  <circle cx="36.8" cy="52" r="3.8" fill="#fbd2af" stroke="#d3a883" stroke-width="1.2"/>
  <!-- torso: navy vest -->
  <rect x="10.5" y="34" width="27" height="24" rx="10" fill="#28368a" stroke="#192358" stroke-width="2"/>
  <!-- white shirt panel -->
  <path d="M19 35 L29 35 L27 50 Q24 52 21 50 Z" fill="#fdfdfd" stroke="#dfe2ee" stroke-width="0.8"/>
  <!-- bow tie -->
  <path d="M20.5 39 L24 41 L20.5 43 Z" fill="#e23b3b"/>
  <path d="M27.5 39 L24 41 L27.5 43 Z" fill="#e23b3b"/>
  <circle cx="24" cy="41" r="1.4" fill="#c62f2f"/>
  <!-- pocket button row -->
  <circle cx="24" cy="47" r="1" fill="#cfd5ee"/>
  <circle cx="24" cy="51" r="1" fill="#cfd5ee"/>
  <!-- neck -->
  <rect x="20.5" y="28" width="7" height="7" rx="3" fill="#fbd2af"/>
  <!-- ears -->
  <circle cx="10.3" cy="17" r="3" fill="#fbd2af" stroke="#d3a883" stroke-width="1"/>
  <circle cx="37.7" cy="17" r="3" fill="#fbd2af" stroke="#d3a883" stroke-width="1"/>
  <!-- head -->
  <circle cx="24" cy="16" r="14.5" fill="#fbd2af" stroke="#d3a883" stroke-width="2"/>
  <!-- hair: neat brown with side part -->
  <path d="M9.5 16 Q9 1.5 24 1.5 Q39 1.5 38.5 16 Q37 8 27 6.5 Q30 11 24 10.5 Q14 9.5 9.5 16 Z" fill="#4a2f1c"/>
  <path d="M9.5 16 Q14 9.5 24 10.5" fill="none" stroke="#3a2415" stroke-width="1"/>
  <!-- cheeks -->
  <circle cx="15" cy="20" r="3.2" fill="#FF8A8A" opacity="0.45"/>
  <circle cx="33" cy="20" r="3.2" fill="#FF8A8A" opacity="0.45"/>
</svg>
