<svg xmlns="http://www.w3.org/2000/svg" viewBox="0 0 48 76">
  <ellipse cx="24" cy="73" rx="14" ry="3.2" fill="#0000001f"/>
  <!-- legs in stride -->
  <rect x="14.5" y="54" width="7" height="15" rx="3.5" fill="#1f2a55" stroke="#141b3a" stroke-width="1.3" transform="rotate(-12 18 56)"/>
  <rect x="26.5" y="54" width="7" height="15" rx="3.5" fill="#1f2a55" stroke="#141b3a" stroke-width="1.3" transform="rotate(12 30 56)"/>
  <ellipse cx="16" cy="70.5" rx="5.2" ry="3" fill="#26262e"/>
  <ellipse cx="32" cy="70.5" rx="5.2" ry="3" fill="#26262e"/>
  <!-- arms (swing) -->
  <rect x="7" y="35" width="8.5" height="16" rx="4.2" fill="#28368a" stroke="#192358" stroke-width="1.6" transform="rotate(10 11 38)"/>
  <rect x="32.5" y="36" width="8.5" height="16" rx="4.2" fill="#28368a" stroke="#192358" stroke-width="1.6" transform="rotate(-8 37 38)"/>
  <circle cx="10.6" cy="51.5" r="3.8" fill="#fbd2af" stroke="#d3a883" stroke-width="1.2"/>
  <circle cx="37.2" cy="52" r="3.8" fill="#fbd2af" stroke="#d3a883" stroke-width="1.2"/>
  <!-- torso: navy vest -->
  <rect x="10.5" y="33.5" width="27" height="24" rx="10" fill="#28368a" stroke="#192358" stroke-width="2"/>
  <path d="M19 34.5 L29 34.5 L27 49.5 Q24 51.5 21 49.5 Z" fill="#fdfdfd" stroke="#dfe2ee" stroke-width="0.8"/>
  <path d="M20.5 38.5 L24 40.5 L20.5 42.5 Z" fill="#e23b3b"/>
  <path d="M27.5 38.5 L24 40.5 L27.5 42.5 Z" fill="#e23b3b"/>
  <circle cx="24" cy="40.5" r="1.4" fill="#c62f2f"/>
  <rect x="20.5" y="27.5" width="7" height="7" rx="3" fill="#fbd2af"/>
  <circle cx="10.3" cy="17" r="3" fill="#fbd2af" stroke="#d3a883" stroke-width="1"/>
  <circle cx="37.7" cy="17" r="3" fill="#fbd2af" stroke="#d3a883" stroke-width="1"/>
  <circle cx="24" cy="16" r="14.5" fill="#fbd2af" stroke="#d3a883" stroke-width="2"/>
  <path d="M9.5 16 Q9 1.5 24 1.5 Q39 1.5 38.5 16 Q37 8 27 6.5 Q30 11 24 10.5 Q14 9.5 9.5 16 Z" fill="#4a2f1c"/>
  <path d="M9.5 16 Q14 9.5 24 10.5" fill="none" stroke="#3a2415" stroke-width="1"/>
  <circle cx="15" cy="20" r="3.2" fill="#FF8A8A" opacity="0.45"/>
  <circle cx="33" cy="20" r="3.2" fill="#FF8A8A" opacity="0.45"/>
</svg>
